
<svg xmlns="http://www.w3.org/2000/svg" id="Group_4874" width="174.098" height="50.446" viewBox="0 0 174.098 50.446">
    <defs>
        <style>
            .cls-1{fill:#a50c22}
        </style>
    </defs>
    <g id="Group_4576">
        <path id="Path_8819" d="M246.179 215.634a1.018 1.018 0 0 1-.11.037c-.5.06-.5.06-.709-.392-.122-.261-.122-.26-.418-.236-.243.019-.486.04-.728.049a.266.266 0 0 0-.294.24 4.851 4.851 0 0 1-.144.493l-.6.046c.03-.111.048-.19.072-.268q.409-1.323.82-2.645c.066-.217.067-.224.292-.23.5-.014.367-.108.594.351.367.745.723 1.5 1.085 2.244.046.1.091.2.145.312m-1.656-2.161l-.067.006c-.1.362-.207.723-.323 1.129l.881-.059c-.174-.39-.321-.738-.491-1.077" class="cls-1" transform="translate(-221.681 -212.631)"/>
        <path id="Path_8820" d="M249.581 215.017a1.134 1.134 0 1 1 1.152 1.116 1.067 1.067 0 0 1-1.152-1.116m1.707-.064h-.024a1.353 1.353 0 0 0 0-.15.542.542 0 0 0-1.065-.111.977.977 0 0 0-.018.593.536.536 0 0 0 .488.4.521.521 0 0 0 .53-.342 2.632 2.632 0 0 0 .089-.388" class="cls-1" transform="translate(-223.585 -212.963)"/>
        <path id="Path_8821" d="M253.931 216.532l-.53-.119.494-2.135.479.1-.018.292c.086-.04.155-.076.226-.105a.883.883 0 0 1 .883.089.523.523 0 0 1 .245.468 1.917 1.917 0 0 1-.038.349c-.088.41-.184.817-.278 1.226-.011.048-.033.093-.058.167l-.521-.122c.077-.341.152-.658.221-.976a4.239 4.239 0 0 0 .085-.444c.025-.247-.051-.374-.241-.438a.45.45 0 0 0-.531.175.929.929 0 0 0-.115.277c-.087.341-.166.684-.249 1.025-.011.048-.03.095-.055.175" class="cls-1" transform="translate(-224.721 -213.097)"/>
        <path id="Path_8822" d="M248.008 212.6h.533c.037.5 0 1 0 1.5s-.015 1-.022 1.524h-.554c-.011-1.006.051-2 .044-3.024" class="cls-1" transform="translate(-223.104 -212.598)"/>
        <path id="Path_8823" d="M258.426 244.28a18.23 18.23 0 0 1-36.339.09 9.169 9.169 0 0 0 9.079 7.594 9.077 9.077 0 0 0 8.552-6.073l-.349-.219a6.517 6.517 0 0 1-2.386-2.473 4.646 4.646 0 0 1-.581-2.093 4.222 4.222 0 0 1 .619-2.355 8.7 8.7 0 0 1 .8-1.094 11.048 11.048 0 0 0 1.535-2.178 5.286 5.286 0 0 0 .587-2.146 6.708 6.708 0 0 0-.16-1.575c-.07-.354-.124-.71-.183-1.066a.131.131 0 1 1 .2-.121 11.781 11.781 0 0 1 3.933 4.474 8.315 8.315 0 0 1-.33 7.872 7.63 7.63 0 0 1-1.714 1.866c-.222.179-.442.362-.661.545-.07.059-.131.13-.2.193a.3.3 0 0 0-.072.363 9.163 9.163 0 0 0 .765 1.614 8.967 8.967 0 0 0 6.248 4.32 9.114 9.114 0 0 0 9.981-5.311 10.138 10.138 0 0 0 .673-2.227" class="cls-1" transform="translate(-215.415 -217.908)"/>
        <path id="Path_8824" d="M217.115 256c-.059-.2-.114-.4-.174-.6a.642.642 0 0 1 .1-.071 1.089 1.089 0 0 0 .7-1.234 2.437 2.437 0 0 0-.246-.893.933.933 0 0 0-.5-.474.668.668 0 0 0-.925.468 6.409 6.409 0 0 0-.1.924c-.025.368-.028.738-.056 1.106a2.416 2.416 0 0 1-.093.467 1.45 1.45 0 0 1-2.215.8 1.886 1.886 0 0 1-.734-.9 3.153 3.153 0 0 1-.214-1.873 1.751 1.751 0 0 1 1.25-1.356.732.732 0 0 1 .121-.015l.186.6a1.227 1.227 0 0 1-.124.074 1.253 1.253 0 0 0-.821 1.111 2.139 2.139 0 0 0 .434 1.608.821.821 0 0 0 .726.33.7.7 0 0 0 .648-.445 2.28 2.28 0 0 0 .14-.608c.034-.368.029-.739.058-1.107a4.99 4.99 0 0 1 .115-.87 1.257 1.257 0 0 1 1.194-1.018 1.394 1.394 0 0 1 1.309.652 2.746 2.746 0 0 1 .432 1.118 2.65 2.65 0 0 1 0 .976 1.532 1.532 0 0 1-1.21 1.239" class="cls-1" transform="translate(-212.595 -224.309)"/>
        <path id="Path_8825" d="M220.276 263.7l-.375.315.008.052a1.472 1.472 0 0 1 1.209.566 1.147 1.147 0 0 1 .165 1.325c.109.013.195.027.28.032a1.413 1.413 0 0 1 1.167.729 1.053 1.053 0 0 1-.129 1.344 2.119 2.119 0 0 1-.255.241q-1.051.825-2.1 1.645c-.033.025-.069.046-.131.089l-.392-.493c.078-.065.139-.121.2-.172.569-.446 1.139-.888 1.706-1.335a3.976 3.976 0 0 0 .417-.365.61.61 0 0 0 .11-.763.941.941 0 0 0-1.234-.462 2.257 2.257 0 0 0-.429.258c-.547.418-1.087.845-1.631 1.268-.072.055-.145.108-.232.173l-.39-.5c.079-.068.138-.124.2-.174.588-.462 1.179-.919 1.764-1.384a2.572 2.572 0 0 0 .414-.4.6.6 0 0 0 .016-.748.939.939 0 0 0-1.209-.371 3.4 3.4 0 0 0-.617.384c-.483.363-.955.741-1.432 1.113-.07.056-.145.108-.234.174l-.4-.506 3.172-2.481.361.447" class="cls-1" transform="translate(-213.827 -227.652)"/>
        <path id="Path_8826" d="M231.691 226.752l.377.485-.424.363 2.087 2.678a1.227 1.227 0 0 1-.183.051c-.1.011-.2 0-.3.02a.494.494 0 0 1-.526-.238c-.468-.626-.956-1.236-1.437-1.851-.056-.072-.115-.141-.185-.228a3.087 3.087 0 0 0-.791.668l2.378 2.467c-.284.048-.518.1-.754.122-.058.006-.134-.058-.183-.108-.272-.274-.538-.555-.807-.831-.058-.059-.119-.114-.2-.195l-.708.782.564.524a.274.274 0 0 1-.273.136c-.3 0-.6-.007-.907-.013a.326.326 0 0 1-.345-.2.374.374 0 0 1 .091-.415c.324-.352.641-.711.96-1.067.056-.063.108-.126.183-.214l-.5-.516c-.6.516-1.056 1.134-1.61 1.693l-.466-.413 1.213-1.349.187.13.016-.019-.112-.164a17.755 17.755 0 0 1 2.664-2.3" class="cls-1" transform="translate(-217.09 -216.804)"/>
        <path id="Path_8827" d="M254.957 222.946l.056.535c-.2.02-.373.035-.545.056a1.05 1.05 0 0 0-.219.051.262.262 0 0 0-.208.3.274.274 0 0 0 .245.278 2.555 2.555 0 0 0 .522-.018 1.745 1.745 0 0 0 .29-.082l-.024.278a6.935 6.935 0 0 0 .563-1.527l-1.891-.529.164-.588c.075.011.131.013.185.027l1.186.339.973.276a3.286 3.286 0 0 0-.225-.288 3.886 3.886 0 0 0-1.283-.915.315.315 0 0 1-.232-.336c0-.166-.025-.331-.042-.552a2.778 2.778 0 0 1 1.336.893.96.96 0 0 0-.017-.157c-.073-.214-.146-.429-.226-.641a.51.51 0 0 0-.292-.357.186.186 0 0 1-.093-.132c-.027-.215-.039-.432-.062-.7a5.626 5.626 0 0 1 .706.334.686.686 0 0 1 .226.352c.122.375.233.753.323 1.137.1.416.176.838.239 1.261.03.2.088.335.3.368a.708.708 0 0 1 .143.067l-.2.574-.528-.168c-.223.526-.394 1.067-.592 1.6s-.385 1.051-.6 1.628c-.166-.23-.309-.413-.432-.61a.3.3 0 0 1 .006-.21c.066-.214.144-.425.23-.673h-.315a.992.992 0 0 1-1.03-.958.731.731 0 0 1 .334-.69 1.524 1.524 0 0 1 1.025-.225" class="cls-1" transform="translate(-224.778 -214.549)"/>
        <path id="Path_8828" d="M245.5 222.725a1.913 1.913 0 0 1-.044-.212c-.011-.124-.013-.249-.02-.4l.789-.067c.21-.016.419-.033.629-.045a.469.469 0 0 1 .38.069c.04.035.13.018.2.018h1.443a1.359 1.359 0 0 1 .021.621l-.526.025c-.006.1-.016.19-.016.28v2.823a.377.377 0 0 0 .174.353.892.892 0 0 1 .283 1.021.8.8 0 0 1-.8.572 1.282 1.282 0 0 1-.869-.277 2.86 2.86 0 0 1-.366-.344 8.273 8.273 0 0 1-.76-1.079.362.362 0 0 1 .464.173 3.025 3.025 0 0 0 .689.8.968.968 0 0 0 .935.228.421.421 0 0 0 .33-.4.326.326 0 0 0-.461-.347 1.267 1.267 0 0 0-.291.194 1.519 1.519 0 0 0-.167.181c-.119-.173-.223-.322-.323-.469a.813.813 0 0 1 .822-.429c-.02-.125-.115-.158-.186-.2a.311.311 0 0 1-.16-.313c.008-.4 0-.806 0-1.21 0-.089-.007-.18-.013-.3-.395.033-.77.053-1.141.1a.325.325 0 0 0-.264.4 1.342 1.342 0 0 0 .117.356 2.935 2.935 0 0 0 .611.827c.054.052.115.1.2.167l-.246.183a.947.947 0 0 1-.14-.11c-.239-.281-.49-.553-.709-.85a1.658 1.658 0 0 1-.335-1.036.65.65 0 0 1 .183-.482.506.506 0 0 1 .255-.143c.45-.048.9-.077 1.378-.115.02.149.04.277.058.407a2.536 2.536 0 0 0 .011-.954l-.24-.014c-.049 0-.115.011-.148-.015-.15-.122-.318-.072-.481-.061-.351.023-.7.051-1.054.075h-.2" class="cls-1" transform="translate(-222.354 -215.391)"/>
        <path id="Path_8829" d="M257.948 276.43l-.64-1.882.61-.21c.607 1.761 1.207 3.5 1.816 5.273l-.557.192-.177-.424c-.043.074-.073.119-.094.166a1.446 1.446 0 0 1-1.435.817 1.786 1.786 0 0 1-1.363-.846 2.91 2.91 0 0 1-.491-1.838 1.537 1.537 0 0 1 2.154-1.316c.036.02.077.029.175.067m-1.692 1.475a2.773 2.773 0 0 0 .51 1.406 1.116 1.116 0 0 0 .82.484 1.021 1.021 0 0 0 1.1-1.1 2.625 2.625 0 0 0-.578-1.555 1.047 1.047 0 0 0-1.174-.352 1.077 1.077 0 0 0-.673 1.118" class="cls-1" transform="translate(-225.378 -230.945)"/>
        <path id="Path_8830" d="M251.419 275.817l.139.734c-.214.045-.4.082-.6.123l-.115-.161a.682.682 0 0 0-.041.079q-.4 1.14-.805 2.279l-.953 2.708c-.082.234-.084.234-.337.242-.127 0-.251.007-.377.009-.025 0-.05-.006-.109-.012-.772-1.8-1.55-3.622-2.347-5.483l.765-.035 1.93 4.867a1.038 1.038 0 0 0 .077-.146l1.52-4.642c.065-.2.073-.2.283-.214.107-.006.214-.009.329-.015.015-.08.029-.141.045-.223l.6-.11" class="cls-1" transform="translate(-222.484 -231.384)"/>
        <path id="Path_8831" d="M270.163 274.113c-.079.07-.134.121-.19.168-.1.086-.207.167-.321.26l-.394-.256c-.1.072-.086.195-.115.291a2.1 2.1 0 0 1-1.047 1.3 1.157 1.157 0 0 1-.7.16 1.129 1.129 0 0 1-.937-1.5 1.926 1.926 0 0 1 .414-.656q.424-.466.841-.937a3.21 3.21 0 0 0 .191-.27c-.112-.12-.211-.24-.326-.347a.547.547 0 0 0-.541-.122 1.626 1.626 0 0 0-.964.76.69.69 0 0 0-.046.516c.019.089.051.176.089.3-.169.1-.343.207-.531.321a1.213 1.213 0 0 1-.126-1.106 2.564 2.564 0 0 1 1.619-1.444.884.884 0 0 1 .925.246 4.986 4.986 0 0 1 .4.451c.225.272.438.553.667.821a3.634 3.634 0 0 0 1.092 1.05m-1.931-1.024c-.171.222-.314.418-.468.6s-.332.379-.5.568a1.256 1.256 0 0 0-.117.164.606.606 0 0 0 .02.727.634.634 0 0 0 .724.2 1.409 1.409 0 0 0 .872-1.192 1.628 1.628 0 0 0-.535-1.075" class="cls-1" transform="translate(-228.279 -230.101)"/>
        <path id="Path_8832" d="M236.933 278.142l-.559-.252a1.267 1.267 0 0 1 1.156-.791 2.793 2.793 0 0 1 1.63.431.956.956 0 0 1 .462 1.147c-.137.552-.306 1.1-.453 1.65-.07.266-.139.536-.184.808a3.355 3.355 0 0 0 0 .522l-.384-.1c-.278-.079-.287-.094-.271-.384 0-.048.008-.1.013-.157-.117-.045-.2.029-.29.06a2.09 2.09 0 0 1-1.752-.138 1.085 1.085 0 0 1-.5-1.46 1.1 1.1 0 0 1 1.017-.665 6.2 6.2 0 0 1 .85.063c.325.031.649.074.976.1.215.018.233 0 .292-.219a.687.687 0 0 0-.4-.914 2.893 2.893 0 0 0-.694-.207.731.731 0 0 0-.715.279c-.059.07-.115.141-.186.228m1.773 1.364a.856.856 0 0 0-.117-.028c-.375-.03-.751-.063-1.128-.089a3.649 3.649 0 0 0-.5-.016.576.576 0 0 0-.546.444.585.585 0 0 0 .233.666 1.426 1.426 0 0 0 .5.214 1.165 1.165 0 0 0 1.246-.4 2.1 2.1 0 0 0 .311-.794" class="cls-1" transform="translate(-219.455 -231.765)"/>
        <path id="Path_8833" d="M225.585 275.327l-.5-.439.19-.467-.312-.031a2.036 2.036 0 0 1-1.558-.945 1.1 1.1 0 0 1 .656-1.683 1.229 1.229 0 0 1 .881.105c.2.1.39.227.584.344.295.177.584.363.883.532.2.11.217.1.357-.073a.694.694 0 0 0 .011-1.018 2.813 2.813 0 0 0-.486-.432.766.766 0 0 0-.876-.048c-.058.032-.117.061-.193.1-.134-.155-.265-.3-.408-.468a1.232 1.232 0 0 1 1.134-.3 2.618 2.618 0 0 1 1.589 1.233.935.935 0 0 1-.1 1.148c-.332.41-.683.807-1.026 1.209l-.083.094a3.364 3.364 0 0 0-.74 1.141m.68-2.078c-.063-.042-.088-.061-.115-.076-.335-.189-.671-.378-1.006-.564a3.233 3.233 0 0 0-.4-.209.608.608 0 0 0-.812.335.651.651 0 0 0 .111.663 1.423 1.423 0 0 0 .679.5 1.067 1.067 0 0 0 1.163-.239c.125-.122.24-.254.381-.406" class="cls-1" transform="translate(-215.751 -229.793)"/>
        <path id="Path_8834" d="M277.9 258.479l-.269.552a1.28 1.28 0 0 1-.753-1.234 2.873 2.873 0 0 1 .432-1.481 1 1 0 0 1 1.267-.495c.484.138.959.305 1.44.452a3.752 3.752 0 0 0 1.468.287c-.061.192-.114.358-.165.525a.155.155 0 0 1-.174.114c-.108 0-.215-.011-.359-.019.031.117.054.218.086.317a2.078 2.078 0 0 1-.169 1.655 1.1 1.1 0 0 1-1.233.613 1.109 1.109 0 0 1-.9-1.1 5.731 5.731 0 0 1 .075-.824c.044-.349.1-.7.145-1.047.025-.213.006-.228-.186-.29a.7.7 0 0 0-.961.392 3.016 3.016 0 0 0-.222.741.665.665 0 0 0 .23.611c.079.073.16.144.25.223m1.406-1.7c-.033.323-.062.632-.1.938-.027.224-.074.447-.089.672a.62.62 0 0 0 .472.681.63.63 0 0 0 .72-.33 1.434 1.434 0 0 0 .154-1.092 1.243 1.243 0 0 0-1.16-.869" class="cls-1" transform="translate(-231.696 -225.424)"/>
        <path id="Path_8835" d="M277.134 264.989c-.1.191-.2.358-.308.559-1.636-.9-3.249-1.8-4.881-2.7l.32-.57 1.738.959c-.02-.129-.027-.2-.041-.273a1.662 1.662 0 0 1 .709-1.662 1.014 1.014 0 0 1 .868-.126 2.893 2.893 0 0 1 .557.228c.73.4 1.456.8 2.182 1.205.036.02.069.045.126.084-.1.184-.2.363-.3.555-.094-.046-.168-.081-.24-.12-.653-.361-1.3-.726-1.961-1.085a2.074 2.074 0 0 0-.414-.18.727.727 0 0 0-.811.256 1.034 1.034 0 0 0 .158 1.534c.384.268.8.483 1.212.718.312.179.631.349.946.525.043.024.082.055.145.1" class="cls-1" transform="translate(-230.231 -227.018)"/>
        <path id="Path_8836" d="M267.474 236.593c-.111.054-.192.1-.275.134-.183.08-.315 0-.322-.2a.411.411 0 0 1 .013-.15c.077-.257.156-.514.245-.768a.472.472 0 0 1 .129-.181c.176-.16.289-.14.415.06.026.041.058.079.1.141l.85-.47a6.55 6.55 0 0 0-.524-.891l-2.9 1.812a1.26 1.26 0 0 1-.023-.191c0-.134.028-.268.022-.4a.341.341 0 0 1 .194-.344c.694-.422 1.382-.858 2.072-1.29.077-.049.153-.1.252-.166l-.228-.42.523-.329a31.487 31.487 0 0 1 1.817 3.06l-.531.3-.328-.551-.874.485.453.837-.611.344c-.159-.276-.306-.536-.469-.821" class="cls-1" transform="translate(-228.222 -218.642)"/>
        <path id="Path_8837" d="M233.445 225.483l.937-.522.939-.524a.723.723 0 0 0-.128-.109c-.261-.114-.519-.235-.788-.33a.9.9 0 0 0-.8.068.327.327 0 0 1-.451-.048 4.879 4.879 0 0 0-.408-.312 1.568 1.568 0 0 1 1.27-.291 6.9 6.9 0 0 1 1.51.68.291.291 0 0 0 .41-.008l.312.55-.557.331.588 1.08-.5.274c-.109.062-.221.12-.328.186a.468.468 0 0 0-.173.687.652.652 0 0 0 .971.119c-.017-.024-.03-.052-.051-.076a.392.392 0 0 1-.076-.5.494.494 0 0 1 .5-.266.324.324 0 0 1 .178.082c.189.217.377.44.271.764a.372.372 0 0 0 0 .091 1.509 1.509 0 0 1 .611.4c-.136.078-.263.15-.374.216-.17-.1-.32-.186-.471-.271a.23.23 0 0 0-.237 0 1.366 1.366 0 0 1-1.807-.526 1.571 1.571 0 0 1-.191-.513.545.545 0 0 1 .33-.64c.146-.083.292-.165.437-.249.014-.008.023-.024.059-.065l-.275-.508-1.407.773c-.1-.186-.2-.358-.306-.549" class="cls-1" transform="translate(-218.583 -215.797)"/>
        <path id="Path_8838" d="M216.4 262.843a1.548 1.548 0 0 1-1.008-.386 2.022 2.022 0 0 1-.73-1.364 1.648 1.648 0 0 1 .632-1.536 3.014 3.014 0 0 1 1.6-.677 1.613 1.613 0 0 1 1.058.25 2.027 2.027 0 0 1 .886 1.978 1.7 1.7 0 0 1-.441.889 3.07 3.07 0 0 1-2 .846m.657-3.308a2.39 2.39 0 0 0-1.514.7 1.144 1.144 0 0 0 .85 1.941 2.234 2.234 0 0 0 1.574-.693 1.08 1.08 0 0 0 .226-1.257 1.134 1.134 0 0 0-1.136-.691" class="cls-1" transform="translate(-213.206 -226.348)"/>
        <path id="Path_8839" d="M225.754 235.063l-.271.4-.517-.316a18.994 18.994 0 0 1 1.895-2.874l.492.351-.313.467 2.765 2.017a3.3 3.3 0 0 1-.711.253c-.069.015-.171-.051-.241-.1-.654-.47-1.3-.945-1.957-1.418-.08-.058-.163-.115-.261-.182a4.289 4.289 0 0 0-.53.8l2.923 1.76a2.8 2.8 0 0 1-.685.333c-.057.022-.156-.039-.224-.081-.685-.408-1.368-.82-2.05-1.229-.1-.06-.2-.115-.315-.181" class="cls-1" transform="translate(-216.271 -218.444)"/>
        <path id="Path_8840" d="M260.091 275.578l.614-.329 2.52 2.3a.421.421 0 0 0 .014-.1l-.385-2.512c-.032-.208-.052-.417-.088-.623a.182.182 0 0 1 .108-.224c.142-.067.28-.142.446-.227.056.4.109.777.157 1.148.148 1.115.3 2.229.438 3.346a6.793 6.793 0 0 1 .063.978.993.993 0 0 1-.757.983c-.183.051-.2.046-.313-.11-.072-.1-.14-.207-.222-.329l.259-.11a.678.678 0 0 0 .465-.749v-.025a1.044 1.044 0 0 0-.408-.862c-.926-.776-1.824-1.586-2.732-2.385-.055-.048-.107-.1-.179-.169" class="cls-1" transform="translate(-226.708 -230.804)"/>
        <path id="Path_8841" d="M231.523 274.4c.229.122.42.221.62.329l-.5 3.381 2.537-2.3.548.288a.892.892 0 0 1-.111.145q-1.791 1.585-3.589 3.162a2.711 2.711 0 0 1-.629.41.962.962 0 0 1-1.075-.187.2.2 0 0 1-.075-.264c.054-.129.105-.261.167-.412.1.067.179.124.263.174a.684.684 0 0 0 .88-.063 1.112 1.112 0 0 0 .48-.829c.113-1.125.274-2.247.417-3.37.018-.141.041-.28.067-.469" class="cls-1" transform="translate(-217.537 -230.962)"/>
        <path id="Path_8842" d="M261.534 226.97c.12-.1.24-.205.381-.325l.219.166c.324.253.646.507.971.76.077.06.148.116.082.231.041-.023.082-.048.148-.084l1.541 1.435-.415.46a20.683 20.683 0 0 0-2.071-1.775l-2.112 2.7c-.088-.27-.169-.488-.226-.711a.292.292 0 0 1 .07-.2c.124-.176.26-.344.41-.54l-.175-.041a1.012 1.012 0 0 1-.565-1.55.777.777 0 0 1 .865-.311c.451.105.5.172.465.626 0 .049-.016.095-.029.162a2.05 2.05 0 0 0-.268-.1 3.238 3.238 0 0 0-.541-.089.473.473 0 0 0-.272.1.208.208 0 0 0 0 .36.809.809 0 0 0 .515.173h.529l.8-1.02c-.1-.084-.186-.151-.268-.219s-.131-.113-.056-.207z" class="cls-1" transform="translate(-226.565 -216.772)"/>
        <path id="Path_8843" d="M239.1 223.3l.165.323.032-.011-.075-.355a8.6 8.6 0 0 1 1.663-.468c.048.176.1.358.153.555-.185.06-.341.114-.528.177l.931 3.269a2.954 2.954 0 0 1-.725-.214c-.045-.016-.074-.1-.094-.165-.06-.181-.112-.365-.174-.574-.085.063-.148.112-.214.159a1.014 1.014 0 0 1-1.523-.6.93.93 0 0 1 .672-1.043.194.194 0 0 1 .137.031c.124.1.242.2.375.312-.138.092-.26.164-.37.251a.844.844 0 0 0-.335.429.3.3 0 0 0 .067.325c.095.087.2.053.306.006a1.087 1.087 0 0 0 .47-.441c.051-.083.108-.162.181-.275l-.375-1.3c-.64.23-1.229.505-1.871.743l-.24-.581 1.373-.554" class="cls-1" transform="translate(-220.064 -215.627)"/>
        <path id="Path_8844" d="M262.714 232.766c-.172-.02-.265-.089-.273-.255a4.921 4.921 0 0 1 .089-1.428 1.186 1.186 0 0 1 .556-.747.66.66 0 0 1 1.063.547c0 .057.008.115.012.171.545-.018.683.119.645.651l.238-.084c.067.078.138.15.2.228.176.235.609.095.708-.163a.27.27 0 0 0-.065-.28c-.122-.148-.24-.3-.375-.468l.474-.394c.387.43.722.885 1.108 1.347l-.48.394-.31-.341c-.048.058-.091.1-.129.155a1.208 1.208 0 0 1-.706.448.858.858 0 0 1-.574-.1.3.3 0 0 0 .009.414 1.125 1.125 0 0 0 .551.38c.1.036.211.054.356.091a5.71 5.71 0 0 1-.589.474c-.034.024-.115.006-.164-.017a1.01 1.01 0 0 1-.658-1.334 6.536 6.536 0 0 1 .26-.6c-.178-.293-.378-.321-.617-.077-.14.144-.276.292-.437.464l-.228-.514c.113-.123.224-.247.337-.368.086-.093.186-.18.1-.327a.409.409 0 0 0-.43-.2.626.626 0 0 0-.4.354 2.84 2.84 0 0 0-.219.952c-.021.206-.035.413-.053.626" class="cls-1" transform="translate(-227.403 -217.83)"/>
        <path id="Path_8845" d="M268.8 269.482l.458-.5 3.109 1.345a3.459 3.459 0 0 0-.291-.609c-.1-.2-.2-.4-.307-.606s-.205-.4-.308-.606-.207-.4-.309-.6-.2-.4-.31-.615l.45-.485c.082.157.149.28.212.408l1.589 3.228c.111.226.112.228-.058.408-.3.314-.2.291-.585.135q-1.713-.695-3.423-1.4c-.067-.027-.133-.06-.226-.1" class="cls-1" transform="translate(-229.297 -228.705)"/>
        <path id="Path_8846" d="M216.5 235.075c.1.221.171.417.268.6a.411.411 0 0 0 .195.141c.214.1.432.18.678.281l-.216.545-2.832-1.146.221-.54 1.208.478.043-.044c-.037-.08-.07-.161-.108-.24-.195-.41-.387-.82-.587-1.226a.358.358 0 0 1-.011-.335c.077-.164.142-.336.228-.544.06.125.1.212.145.3l.43.965c.1.217.105.22.345.172.543-.105 1.087-.214 1.629-.321.088-.016.176-.025.305-.044-.093.233-.162.429-.253.616a.274.274 0 0 1-.185.1c-.438.072-.878.134-1.318.2-.049.007-.1.022-.187.043" class="cls-1" transform="translate(-213.189 -218.674)"/>
        <path id="Path_8847" d="M235.041 218.652c.176-.047.351-.1.526-.138a.164.164 0 0 1 .114.034.353.353 0 0 0 .358.034c.359-.12.444-.3.315-.654-.03-.086-.067-.169-.115-.285-.048.071-.081.112-.106.159a.8.8 0 0 1-1.225.261 1.361 1.361 0 0 1-.524-1.315.831.831 0 0 1 1.128-.674l.163.052-.047-.269.441-.167a.988.988 0 0 1 .076.134c.224.578.453 1.156.665 1.74a2.885 2.885 0 0 1 .136.609.538.538 0 0 1-.21.488 1.744 1.744 0 0 1-1.154.429.534.534 0 0 1-.54-.436m-.117-1.772a1.156 1.156 0 0 0 .235.644.464.464 0 0 0 .527.19.5.5 0 0 0 .347-.5 1.029 1.029 0 0 0-.276-.682.479.479 0 0 0-.834.346" class="cls-1" transform="translate(-219.065 -213.517)"/>
        <path id="Path_8848" d="M221.9 224.951l.393-.374 1.259.661.039-.036c-.216-.419-.491-.8-.725-1.235l.37-.387 1.281.723a2.843 2.843 0 0 0-.338-.675c-.113-.214-.236-.422-.362-.644l.335-.353a13.431 13.431 0 0 1 1.118 2.015l-.389.356-1.2-.658-.043.045c.218.4.474.78.71 1.2l-.375.4-2.076-1.031" class="cls-1" transform="translate(-215.359 -215.579)"/>
        <path id="Path_8849" d="M231.895 216.222l1.476 2.664-.424.249c-.06-.077-.11-.139-.174-.217a1.017 1.017 0 0 0-.063.117.847.847 0 0 1-1.4.371 1.587 1.587 0 0 1-.548-.994.86.86 0 0 1 1-.98h.162l-.512-.942.484-.268m-.041 1.522a.491.491 0 0 0-.539.514 1.125 1.125 0 0 0 .363.723.474.474 0 0 0 .576.093.487.487 0 0 0 .228-.538 1.158 1.158 0 0 0-.347-.627 1.242 1.242 0 0 0-.281-.164" class="cls-1" transform="translate(-217.99 -213.675)"/>
        <path id="Path_8850" d="M267.073 221.984l-.217.2-.386-.3c.618-.808 1.24-1.593 1.87-2.4.083.059.157.108.228.163s.126.106.206.174l-.642.848c.1.012.152.02.207.024a.857.857 0 0 1 .8 1.073 1.5 1.5 0 0 1-.794.991.831.831 0 0 1-1.238-.624c0-.032-.014-.064-.03-.143m.309-.13a.45.45 0 0 0 .7.406 1.156 1.156 0 0 0 .518-.685.424.424 0 0 0-.134-.455.446.446 0 0 0-.463-.108 1.052 1.052 0 0 0-.621.843" class="cls-1" transform="translate(-228.604 -214.642)"/>
        <path id="Path_8851" d="M282.072 253.587c-.036.212-.068.405-.1.632l-3.97-.7c.037-.2.068-.368.1-.559l.546.063c-.152-.186-.292-.328-.4-.491a.678.678 0 0 1-.063-.582 1.191 1.191 0 0 1 .315-.541l.535.31c-.044.08-.077.137-.108.2a.707.707 0 0 0 .338 1.05 3.48 3.48 0 0 0 .763.243c.6.12 1.2.215 1.806.32.066.012.13.032.238.058" class="cls-1" transform="translate(-232.03 -224.131)"/>
        <path id="Path_8852" d="M228.325 238.875v.392c-.135.048-.28.107-.431.15a.439.439 0 0 0-.335.3.9.9 0 0 1-.193.29.317.317 0 0 1-.368.091.386.386 0 0 1-.269-.3.589.589 0 0 1 .349-.637.3.3 0 0 0 .172-.349c-.021-.181-.147-.26-.3-.169a5.2 5.2 0 0 0-.485.358c-.139.107-.268.229-.416.323a.957.957 0 0 1-.348.135.385.385 0 0 1-.464-.445.263.263 0 0 1 .013-.074l.631-1.678a2.323 2.323 0 0 1 .584.188c-.17.456-.334.9-.5 1.34l.046.024a1.9 1.9 0 0 1 .168-.176 4.212 4.212 0 0 1 .557-.425.541.541 0 0 1 .795.228 3.743 3.743 0 0 1 .211.541c.068-.01.164-.024.259-.04s.195-.037.325-.062" class="cls-1" transform="translate(-216.351 -219.926)"/>
        <path id="Path_8853" d="M267.141 240.337c.064-.285.115-.5.16-.723.024-.115.122-.129.2-.162q.932-.381 1.865-.756c.226-.091.448-.186.692-.285-.048-.153-.093-.293-.144-.459l.567-.23.652 1.6c-.192.081-.372.157-.576.241l-.229-.516-1.572.633-1.619.653" class="cls-1" transform="translate(-228.803 -220.064)"/>
        <path id="Path_8854" d="M274.042 230.388c.04-.082.072-.148.11-.222-.073-.034-.132-.062-.193-.088a.925.925 0 0 1-.5-.538.605.605 0 0 1 .188-.723.59.59 0 0 1 .764-.01 4.662 4.662 0 0 1 .37.338l.3.273a.377.377 0 0 0 .082.043c.208-.126.247-.2.207-.354a.544.544 0 0 0-.55-.41c-.03-.066-.067-.139-.1-.216s-.049-.136-.077-.219a.7.7 0 0 1 .72.123 1.729 1.729 0 0 1 .492.748.534.534 0 0 1-.2.667c-.212.151-.43.29-.648.432a2.273 2.273 0 0 0-.687.583c-.1-.15-.181-.281-.278-.428m.79-.737a5.506 5.506 0 0 0-.482-.427.261.261 0 0 0-.418.212.472.472 0 0 0 .1.3c.2.247.5.218.8-.081" class="cls-1" transform="translate(-230.667 -217.239)"/>
        <path id="Path_8855" d="M221.3 227.14a1.161 1.161 0 0 1 .039 2.321 1.243 1.243 0 0 1-1.195-1.165 1.182 1.182 0 0 1 1.156-1.157m-.11.529a.523.523 0 0 0-.513.7.92.92 0 0 0 .775.551.526.526 0 0 0 .5-.716.93.93 0 0 0-.759-.537" class="cls-1" transform="translate(-214.837 -216.919)"/>
        <path id="Path_8856" d="M229.4 220.963l.472-.214a.814.814 0 0 1-.125.784 1.2 1.2 0 0 1-.675.456.9.9 0 0 1-.827-.185 1.494 1.494 0 0 1-.545-.88.91.91 0 0 1 .365-.954.945.945 0 0 1 1.039-.134 1.455 1.455 0 0 1 .592.574c-.383.3-.8.551-1.174.845a.494.494 0 0 0 .6.262c.215-.073.291-.216.278-.553m-.352-.493c-.232-.3-.495-.358-.709-.177a.442.442 0 0 0 .008.669l.7-.492" class="cls-1" transform="translate(-217.077 -214.719)"/>
        <path id="Path_8857" d="M238.735 216.275c.1.312.26.456.48.458s.346-.1.457-.427l.522-.044a.851.851 0 0 1-.375.683 1.271 1.271 0 0 1-.736.216.82.82 0 0 1-.647-.286 1.413 1.413 0 0 1-.329-1.287.9.9 0 0 1 .767-.706.92.92 0 0 1 1.012.392 1.253 1.253 0 0 1 .236.618l-1.388.383m.775-.559c-.125-.377-.365-.515-.634-.4a.429.429 0 0 0-.19.62l.824-.224" class="cls-1" transform="translate(-220.164 -213.27)"/>
        <path id="Path_8858" d="M277.8 235.332c-.209-.443-.408-.867-.607-1.286a.445.445 0 0 0-.379.468c.008.253.123.361.5.45l.133.474a.743.743 0 0 1-.71-.207 1.168 1.168 0 0 1-.372-.8 1.062 1.062 0 0 1 .1-.481 1.449 1.449 0 0 1 1.445-.642 1.016 1.016 0 0 1 .477 1.654 1.407 1.407 0 0 1-.589.373m.056-.659c.317-.121.437-.368.323-.618s-.377-.316-.687-.162l.364.78" class="cls-1" transform="translate(-231.545 -218.743)"/>
        <path id="Path_8859" d="M271.493 225.449l-1-1.026a.469.469 0 0 0-.207.575c.086.224.232.286.625.261.056.08.119.167.179.257.032.048.058.1.091.161a.762.762 0 0 1-.817-.027 1.774 1.774 0 0 1-.417-.393.86.86 0 0 1-.072-.992 1.507 1.507 0 0 1 .743-.69 1 1 0 0 1 1.267 1.4 1.609 1.609 0 0 1-.4.479m-.16-.636c.27-.263.287-.528.074-.721a.443.443 0 0 0-.669.1l.6.622" class="cls-1" transform="translate(-229.58 -215.835)"/>
        <path id="Path_8860" d="M259.195 217.072l-1.352-.432a.464.464 0 0 0 .082.6c.195.168.365.154.666-.068l.451.236a.769.769 0 0 1-.756.369 1.759 1.759 0 0 1-.572-.168.855.855 0 0 1-.494-.839 1.525 1.525 0 0 1 .325-.934.953.953 0 0 1 1.083-.32.923.923 0 0 1 .693.911 1.37 1.37 0 0 1-.125.643m-.432-.484a.455.455 0 0 0-.079-.561.394.394 0 0 0-.462-.09.386.386 0 0 0-.268.389l.81.261" class="cls-1" transform="translate(-225.855 -213.45)"/>
        <path id="Path_8861" d="M220.2 231.729l-.777-.445c-.153-.087-.3-.178-.462-.254-.233-.112-.394-.08-.516.085a.453.453 0 0 0 .037.6 1.526 1.526 0 0 0 .3.224c.252.153.507.3.76.444.063.039.124.08.2.13-.089.157-.171.3-.268.474-.636-.366-1.257-.724-1.9-1.1l.237-.432.266.1c-.012-.105-.021-.186-.028-.266a.869.869 0 0 1 .1-.511.647.647 0 0 1 .95-.313c.46.24.905.508 1.382.778-.1.169-.183.318-.28.484" class="cls-1" transform="translate(-214.076 -217.878)"/>
        <path id="Path_8862" d="M279.579 238.336l-.247-.426a.56.56 0 0 0 .006-.72c-.047-.079-.113-.157-.224-.12a.182.182 0 0 0-.112.205c0 .134.016.268.022.4a4.871 4.871 0 0 1 .019.553.587.587 0 0 1-.811.526.758.758 0 0 1-.393-.3 1.524 1.524 0 0 1-.284-1 .765.765 0 0 1 .358-.6l.254.467a.553.553 0 0 0-.1.743.492.492 0 0 0 .11.136.187.187 0 0 0 .328-.128 1.684 1.684 0 0 0-.012-.251c-.011-.217-.03-.435-.03-.652a.558.558 0 0 1 .382-.564.591.591 0 0 1 .685.174 1.532 1.532 0 0 1 .361 1.022.609.609 0 0 1-.317.533" class="cls-1" transform="translate(-231.897 -219.719)"/>
        <path id="Path_8863" d="M228.453 277.135l-.549-.358 2.196-3.377.551.356-2.194 3.381" class="cls-1" transform="translate(-217.144 -230.665)"/>
        <path id="Path_8864" d="M276.267 267.947l-.375.536-3.3-2.309.37-.542 3.3 2.314" class="cls-1" transform="translate(-230.424 -228.358)"/>
        <path id="Path_8865" d="M254.68 281.936l-.644.115-.767-3.947c.218-.041.417-.079.644-.124l.768 3.956" class="cls-1" transform="translate(-224.681 -232.027)"/>
        <path id="Path_8866" d="M263.364 216.269l.515.284-1.228 2.221 1.34.756-.226.424-1.87-1.035 1.468-2.65" class="cls-1" transform="translate(-227.245 -213.689)"/>
        <path id="Path_8867" d="M276.03 232.653l-.33.249a3.14 3.14 0 0 1-.271-.334.49.49 0 0 1 .174-.769c.262-.167.534-.316.8-.474.086-.051.172-.1.269-.162l-.079-.255c.1-.063.211-.125.328-.195l.172.19a.312.312 0 0 0 .1-.035.412.412 0 0 1 .585.011c.064.049.136.088.239.155l-.637.382c.055.116.1.22.166.351l-.342.212-.241-.33c-.339.2-.671.39-1 .589a.165.165 0 0 0-.046.261c.032.047.067.093.11.155" class="cls-1" transform="translate(-231.232 -217.981)"/>
        <path id="Path_8868" d="M225.05 221l.431-.353 1.955 2.329-.419.368c-.658-.784-1.3-1.552-1.967-2.344" class="cls-1" transform="translate(-216.296 -214.989)"/>
        <path id="Path_8869" d="M256.76 226.858c.127-.248.234-.463.347-.676.048-.09.134-.092.221-.072a.869.869 0 0 1 .6.463 1.376 1.376 0 0 1-.474 1.756.4.4 0 0 1-.512-.029.278.278 0 0 1 .072-.5 1.757 1.757 0 0 0 .354-.187.772.772 0 0 0 .222-.265.313.313 0 0 0-.2-.461 1.986 1.986 0 0 0-.42-.055 1.207 1.207 0 0 0-.21.023" class="cls-1" transform="translate(-225.719 -216.61)"/>
        <path id="Path_8870" d="M272.075 227.6l-.348-.429 1.708-1.383.309.375-.166.209c.206.03.408.013.543.181a.5.5 0 0 1 .136.361l-.423.16c-.033-.063-.057-.116-.084-.165a.341.341 0 0 0-.505-.169 2.743 2.743 0 0 0-.442.287c-.241.18-.472.372-.728.574" class="cls-1" transform="translate(-230.166 -216.518)"/>
        <path id="Path_8871" d="M223.457 239.122l.822-2.14.589.225-.82 2.139-.59-.224" class="cls-1" transform="translate(-215.822 -219.844)"/>
        <path id="Path_8872" d="M266.286 219.295l.472.294-1.163 1.863-.474-.292 1.165-1.865" class="cls-1" transform="translate(-228.203 -214.588)"/>
        <path id="Path_8873" d="M265.828 239.855a.949.949 0 0 1 .515.535.492.492 0 0 1 .009.438 2.254 2.254 0 0 1-.242.409c-.2.25-.411.487-.621.727-.1.118-.109.115-.32.04.033-.057.06-.114.1-.165.189-.268.384-.531.568-.8.126-.186.117-.235-.039-.392-.113-.112-.233-.217-.37-.344.066-.076.128-.15.194-.222l.21-.225" class="cls-1" transform="translate(-228.217 -220.698)"/>
        <path id="Path_8874" d="M259.675 225.621l-1.329-.678c.1-.19.182-.362.283-.562l1.33.675-.285.565" class="cls-1" transform="translate(-226.19 -216.099)"/>
        <path id="Path_8875" d="M261.775 226.584l-.006.006c-.061.082-.129.054-.2.011l-1.152-.719.33-.536c.422.263.831.517 1.252.781l-.228.458" class="cls-1" transform="translate(-226.806 -216.386)"/>
        <path id="Path_8876" d="M271.4 265.344l-.623-.435.377-.532.616.429c-.124.181-.238.344-.37.538" class="cls-1" transform="translate(-229.885 -227.985)"/>
        <path id="Path_8877" d="M232.051 271.548l.529.344a3.571 3.571 0 0 1-.4.644l-.543-.351.413-.637" class="cls-1" transform="translate(-218.254 -230.115)"/>
        <path id="Path_8878" d="M267.041 218.7l.267-.43.47.287-.266.433-.471-.29" class="cls-1" transform="translate(-228.774 -214.284)"/>
    </g>
    <g id="Group_4577" transform="translate(56.602 34.221)">
        <path id="Path_8879" d="M295.835 267.976l-2.149-5.788-.559-.072v-.7h2.383v.7l-.593.1 1.364 4 .121.427h.028l.126-.423 1.383-4-.68-.09v-.7h2.311v.7l-.568.072-2.068 5.788z" class="cls-1" transform="translate(-293.127 -261.326)"/>
        <path id="Path_8880" d="M303.017 267.976v-.694l.717-.135v-4.9l-.717-.135v-.7h2.563v.7l-.712.135v4.9l.712.135v.694z" class="cls-1" transform="translate(-296.066 -261.326)"/>
        <path id="Path_8881" d="M307.516 267.975v-.693l.721-.139v-4.884l-.721-.143v-.7h2.748a2.77 2.77 0 0 1 2.569 1.554 3.617 3.617 0 0 1 .369 1.662v.13a3.671 3.671 0 0 1-.361 1.652 2.727 2.727 0 0 1-2.545 1.56zm1.857-.873h.865a1.582 1.582 0 0 0 .984-.309 1.953 1.953 0 0 0 .624-.837 3.148 3.148 0 0 0 .216-1.193v-.134a3.161 3.161 0 0 0-.216-1.205 1.907 1.907 0 0 0-.624-.827 1.613 1.613 0 0 0-.984-.3h-.865z" class="cls-1" transform="translate(-297.403 -261.326)"/>
        <path id="Path_8882" d="M317.865 267.976v-.694l.712-.135v-1.478l-1.973-3.464-.6-.09v-.7h2.469v.7l-.626.081 1.216 2.3.1.2.017-.009.1-.184 1.315-2.3-.743-.081v-.7h2.419v.7l-.617.09-1.946 3.374v1.568l.717.135v.694z" class="cls-1" transform="translate(-299.927 -261.326)"/>
        <path id="Path_8883" d="M323.938 267.976v-.694l.477-.068 2.172-5.8h1.1l2.144 5.8.478.068v.694h-2.086v-.694l.468-.086-.346-1.031h-2.441l-.356 1.031.472.086v.694zm2.262-2.676h1.852l-.851-2.428-.059-.176h-.027l-.063.185z" class="cls-1" transform="translate(-302.283 -261.326)"/>
        <path id="Path_8884" d="M334.876 267.976l-2.149-5.788-.559-.072v-.7h2.383v.7l-.594.1 1.365 4 .121.427h.027l.126-.423 1.383-4-.681-.09v-.7h2.311v.7l-.568.072-2.067 5.788z" class="cls-1" transform="translate(-304.728 -261.326)"/>
        <path id="Path_8885" d="M342.058 267.976v-.694l.716-.135v-4.9l-.716-.135v-.7h2.563v.7l-.712.135v4.9l.712.135v.694z" class="cls-1" transform="translate(-307.667 -261.326)"/>
        <path id="Path_8886" d="M346.558 267.976v-.694l.716-.135v-4.9l-.716-.135v-.7h2.567v.7l-.717.135v2.053h2.87v-2.05l-.716-.135v-.7h2.563v.7l-.716.135v4.9l.716.135v.694h-2.563v-.694l.716-.135v-1.968h-2.87v1.968l.717.135v.694z" class="cls-1" transform="translate(-309.004 -261.326)"/>
        <path id="Path_8887" d="M356.312 267.976v-.694l.477-.068 2.172-5.8h1.1l2.144 5.8.477.068v.694H360.6v-.694l.469-.086-.347-1.031h-2.442l-.356 1.031.473.086v.694zm2.266-2.681h1.852l-.851-2.428-.059-.176h-.027l-.063.185z" class="cls-1" transform="translate(-311.903 -261.326)"/>
        <path id="Path_8888" d="M366.144 267.976v-.694l.717-.136v-4.9l-.717-.135v-.7h3.031a3.16 3.16 0 0 1 1.262.227 1.755 1.755 0 0 1 .8.651 2.012 2.012 0 0 1 0 2.028 1.816 1.816 0 0 1-.762.664 2.691 2.691 0 0 1-1.146.247l-1.334.014v1.9l.717.136v.694zm1.856-3.613h1.131a1.448 1.448 0 0 0 .946-.259.932.932 0 0 0 .306-.754 1.02 1.02 0 0 0-.3-.769 1.264 1.264 0 0 0-.907-.286H368zm2.414 3.613l-1.252-3.019 1.063-.175 1.063 2.383.513.108v.7z" class="cls-1" transform="translate(-314.824 -261.326)"/>
        <path id="Path_8889" d="M381.473 268.07a3.014 3.014 0 0 1-1.3-.267 2.054 2.054 0 0 1-.886-.774 2.237 2.237 0 0 1-.318-1.22v-3.559l-.717-.134v-.7h2.563v.7l-.715.134v3.559a1.568 1.568 0 0 0 .171.764 1.1 1.1 0 0 0 .483.461 1.621 1.621 0 0 0 .725.154 1.671 1.671 0 0 0 .741-.154 1.112 1.112 0 0 0 .487-.46 1.531 1.531 0 0 0 .173-.765v-3.559l-.715-.134v-.7h2.563v.7l-.712.134v3.559a2.254 2.254 0 0 1-.318 1.229 2.019 2.019 0 0 1-.889.768 3.148 3.148 0 0 1-1.333.264" class="cls-1" transform="translate(-318.422 -261.326)"/>
        <path id="Path_8890" d="M388.225 267.976v-.694l.716-.135v-4.9l-.716-.135v-.7h1.865l3.009 4.789.028-.01v-3.941l-.829-.135v-.7h2.567v.7l-.716.135v5.726h-1.078l-3.081-4.771h-.026v3.937l.829.135v.694z" class="cls-1" transform="translate(-321.386 -261.326)"/>
        <path id="Path_8891" d="M398.468 267.976v-.694l.717-.135v-4.9l-.717-.135v-.7h2.563v.7l-.712.135v4.9l.712.135v.694z" class="cls-1" transform="translate(-324.43 -261.326)"/>
        <path id="Path_8892" d="M405.552 267.976l-2.149-5.788-.559-.072v-.7h2.383v.7l-.593.1 1.364 4 .121.427h.028l.126-.423 1.383-4-.68-.09v-.7h2.311v.7l-.568.072-2.068 5.788z" class="cls-1" transform="translate(-325.73 -261.326)"/>
        <path id="Path_8893" d="M412.735 267.976v-.694l.717-.135v-4.9l-.717-.135v-.7h5v1.688h-.883l-.076-.815h-2.185v1.856h2.3v.878h-2.3v2.086h2.306l.077-.832h.874v1.7z" class="cls-1" transform="translate(-328.669 -261.326)"/>
        <path id="Path_8894" d="M421.113 267.976v-.694l.716-.136v-4.9l-.716-.135v-.7h3.031a3.162 3.162 0 0 1 1.262.227 1.758 1.758 0 0 1 .8.651 1.852 1.852 0 0 1-.759 2.691 2.687 2.687 0 0 1-1.146.247l-1.333.014v1.9l.716.136v.694zm1.851-3.613h1.136a1.444 1.444 0 0 0 .945-.259.932.932 0 0 0 .306-.754 1.017 1.017 0 0 0-.3-.769 1.263 1.263 0 0 0-.906-.286h-1.18zm2.415 3.613l-1.253-3.019 1.064-.175 1.062 2.383.514.108v.7z" class="cls-1" transform="translate(-331.159 -261.326)"/>
        <path id="Path_8895" d="M432.692 268.032a4.457 4.457 0 0 1-1.248-.167 3.706 3.706 0 0 1-1.122-.554V265.8h.879l.143.978a2.013 2.013 0 0 0 .588.276 2.672 2.672 0 0 0 .76.1 1.735 1.735 0 0 0 .673-.115.946.946 0 0 0 .417-.323.847.847 0 0 0 .143-.491.866.866 0 0 0-.126-.465 1.1 1.1 0 0 0-.419-.362 3.715 3.715 0 0 0-.794-.3 5.624 5.624 0 0 1-1.227-.468 2.03 2.03 0 0 1-.744-.649 1.69 1.69 0 0 1 .037-1.825 1.945 1.945 0 0 1 .794-.64 2.85 2.85 0 0 1 1.177-.239 3.731 3.731 0 0 1 1.29.19 3.089 3.089 0 0 1 .949.518v1.41H434l-.162-.919a1.712 1.712 0 0 0-.481-.222 2.3 2.3 0 0 0-.7-.093 1.519 1.519 0 0 0-.6.112.973.973 0 0 0-.41.318.814.814 0 0 0-.148.488.726.726 0 0 0 .131.433 1.142 1.142 0 0 0 .437.335 5.394 5.394 0 0 0 .829.3 3.87 3.87 0 0 1 1.618.784 1.646 1.646 0 0 1 .549 1.275 1.589 1.589 0 0 1-.3.953 1.9 1.9 0 0 1-.829.633 3.191 3.191 0 0 1-1.25.225" class="cls-1" transform="translate(-333.895 -261.288)"/>
        <path id="Path_8896" d="M437.957 267.976v-.694l.716-.135v-4.9l-.716-.135v-.7h2.563v.7l-.712.135v4.9l.712.135v.694z" class="cls-1" transform="translate(-336.164 -261.326)"/>
        <path id="Path_8897" d="M444.017 267.976v-.694l.716-.135v-4.861h-1.319l-.1.839h-.852v-1.707h5.681v1.707h-.856l-.1-.839h-1.319v4.861l.716.135v.694z" class="cls-1" transform="translate(-337.503 -261.326)"/>
        <path id="Path_8898" d="M453.247 267.976v-.694l.712-.135v-1.478l-1.973-3.464-.594-.09v-.7h2.468v.7l-.626.081 1.216 2.3.1.2.018-.009.1-.184 1.315-2.3-.744-.081v-.7h2.419v.7l-.617.09-1.945 3.374v1.568l.716.135v.694z" class="cls-1" transform="translate(-340.156 -261.326)"/>
    </g>
    <g id="Group_4578" transform="translate(56.601 11.376)">
        <path id="Path_8899" d="M299.688 247.477a12.394 12.394 0 0 1-3.456-.461 10.291 10.291 0 0 1-3.107-1.536v-4.18h2.433l.4 2.707a5.409 5.409 0 0 0 1.628.76 7.339 7.339 0 0 0 2.1.288 4.82 4.82 0 0 0 1.865-.318 2.587 2.587 0 0 0 1.154-.893 2.32 2.32 0 0 0 .4-1.359 2.388 2.388 0 0 0-.349-1.285 3.026 3.026 0 0 0-1.16-1 10.3 10.3 0 0 0-2.2-.817 15.549 15.549 0 0 1-3.4-1.3 5.651 5.651 0 0 1-2.059-1.8 4.673 4.673 0 0 1 .1-5.053 5.371 5.371 0 0 1 2.2-1.771 7.845 7.845 0 0 1 3.256-.661 10.343 10.343 0 0 1 3.575.524 8.561 8.561 0 0 1 2.626 1.434v3.906h-2.383l-.449-2.546a4.787 4.787 0 0 0-1.328-.618 6.493 6.493 0 0 0-1.927-.255 4.2 4.2 0 0 0-1.672.311 2.674 2.674 0 0 0-1.136.88 2.239 2.239 0 0 0-.412 1.353 2.015 2.015 0 0 0 .363 1.2 3.139 3.139 0 0 0 1.21.93 14.682 14.682 0 0 0 2.3.842 10.668 10.668 0 0 1 4.479 2.171 4.56 4.56 0 0 1 1.522 3.53 4.389 4.389 0 0 1-.816 2.639 5.3 5.3 0 0 1-2.3 1.752 8.855 8.855 0 0 1-3.462.625" class="cls-1" transform="translate(-293.126 -228.789)"/>
        <path id="Path_8900" d="M322.219 247.473a7.633 7.633 0 0 1-3.268-.68 7.216 7.216 0 0 1-2.5-1.915 8.794 8.794 0 0 1-1.6-2.92 11.626 11.626 0 0 1-.562-3.693v-.275a11.587 11.587 0 0 1 .562-3.68 8.856 8.856 0 0 1 1.6-2.925 7.166 7.166 0 0 1 2.5-1.921 7.6 7.6 0 0 1 3.256-.68 7.841 7.841 0 0 1 3.331.68 7.088 7.088 0 0 1 2.508 1.921 8.759 8.759 0 0 1 1.584 2.925 11.812 11.812 0 0 1 .549 3.68v.275a11.852 11.852 0 0 1-.549 3.693 8.7 8.7 0 0 1-1.584 2.92 7.136 7.136 0 0 1-2.508 1.915 7.81 7.81 0 0 1-3.318.68m0-2.5a4.246 4.246 0 0 0 2.714-.842 4.941 4.941 0 0 0 1.584-2.352 10.844 10.844 0 0 0 .518-3.518v-.3a10.53 10.53 0 0 0-.524-3.48 5.033 5.033 0 0 0-1.591-2.346 4.228 4.228 0 0 0-2.714-.848 4.086 4.086 0 0 0-2.633.848 5.143 5.143 0 0 0-1.6 2.346 10.322 10.322 0 0 0-.536 3.48v.3a10.532 10.532 0 0 0 .536 3.512 5.066 5.066 0 0 0 1.6 2.357 4.125 4.125 0 0 0 2.638.842" class="cls-1" transform="translate(-299.413 -228.784)"/>
        <path id="Path_8901" d="M339.33 247.321V245.4l1.971-.374v-13.562l-1.971-.374v-1.934h6.475l5.327 13.137h.075l5.165-13.137h6.549v1.934l-1.983.374v13.561l1.983.374v1.922h-7.1V245.4l2.084-.374V240.8l.025-7.948-.062-.011-5.627 14.072h-2.281l-5.79-14-.061.013.162 7.66v4.441l2.157.374v1.922z" class="cls-1" transform="translate(-306.856 -228.895)"/>
        <path id="Path_8902" d="M374.068 247.321V245.4l1.323-.186 6.013-16.057h3.057l5.939 16.057 1.322.186v1.922h-5.777V245.4l1.3-.236-.961-2.858h-6.762l-.985 2.858 1.31.236v1.922zm6.275-7.423h5.127l-2.357-6.724-.162-.486h-.075l-.175.511z" class="cls-1" transform="translate(-317.178 -228.895)"/>
        <path id="Path_8903" d="M401.3 247.321V245.4l1.983-.374v-13.562l-1.983-.374v-1.934h7.1v1.934l-1.971.374v13.561l1.971.374v1.922z" class="cls-1" transform="translate(-325.27 -228.895)"/>
        <path id="Path_8904" d="M418.366 247.321V245.4l1.971-.374v-4.092l-5.464-9.595-1.647-.249v-1.934h6.837v1.934l-1.734.224 3.37 6.363.274.549.049-.025.262-.512 3.644-6.375-2.059-.224v-1.934h6.7v1.934l-1.709.249-5.389 9.345v4.341l1.983.374v1.922z" class="cls-1" transform="translate(-328.814 -228.895)"/>
        <path id="Path_8905" d="M435.183 247.321V245.4l1.323-.186 6.013-16.057h3.057l5.939 16.057 1.322.186v1.922h-5.777V245.4l1.3-.236-.961-2.858h-6.762l-.985 2.858 1.309.236v1.922zm6.275-7.423h5.127l-2.357-6.724-.162-.486h-.075l-.175.511z" class="cls-1" transform="translate(-335.339 -228.895)"/>
    </g>
</svg>
